<svg width="20" height="20" viewBox="0 0 20 20" fill="none" xmlns="http://www.w3.org/2000/svg">
<rect width="20" height="20" fill="#021A3F"/>
<path d="M5.68164 14C5.62435 13.8854 5.5778 13.6813 5.54199 13.3877C5.08008 13.8675 4.52865 14.1074 3.8877 14.1074C3.31478 14.1074 2.84391 13.9463 2.4751 13.624C2.10986 13.2982 1.92725 12.8864 1.92725 12.3887C1.92725 11.7835 2.15641 11.3145 2.61475 10.9814C3.07666 10.6449 3.72477 10.4766 4.55908 10.4766H5.52588V10.02C5.52588 9.67269 5.42204 9.39697 5.21436 9.19287C5.00667 8.98519 4.70052 8.88135 4.2959 8.88135C3.94141 8.88135 3.64421 8.97087 3.4043 9.1499C3.16439 9.32894 3.04443 9.54557 3.04443 9.7998H2.04541C2.04541 9.50977 2.14746 9.23047 2.35156 8.96191C2.55924 8.68978 2.83854 8.47493 3.18945 8.31738C3.54395 8.15983 3.93245 8.08105 4.35498 8.08105C5.02458 8.08105 5.54915 8.24935 5.92871 8.58594C6.30827 8.91895 6.50521 9.37907 6.51953 9.96631V12.6411C6.51953 13.1746 6.58757 13.599 6.72363 13.9141V14H5.68164ZM4.03271 13.2427C4.34424 13.2427 4.63965 13.1621 4.91895 13.001C5.19824 12.8398 5.40055 12.6304 5.52588 12.3726V11.1802H4.74707C3.52962 11.1802 2.9209 11.5365 2.9209 12.249C2.9209 12.5605 3.02474 12.804 3.23242 12.9795C3.4401 13.1549 3.70687 13.2427 4.03271 13.2427ZM10.4082 13.2964C10.7627 13.2964 11.0724 13.189 11.3374 12.9741C11.6024 12.7593 11.7492 12.4907 11.7778 12.1685H12.7178C12.6999 12.5015 12.5853 12.8184 12.374 13.1191C12.1628 13.4199 11.8799 13.6598 11.5254 13.8389C11.1745 14.0179 10.8021 14.1074 10.4082 14.1074C9.61686 14.1074 8.98665 13.8442 8.51758 13.3179C8.05208 12.7879 7.81934 12.0646 7.81934 11.1479V10.9814C7.81934 10.4157 7.92318 9.9126 8.13086 9.47217C8.33854 9.03174 8.63574 8.68978 9.02246 8.44629C9.41276 8.2028 9.87288 8.08105 10.4028 8.08105C11.0545 8.08105 11.5952 8.2762 12.0249 8.6665C12.4582 9.0568 12.6891 9.56348 12.7178 10.1865H11.7778C11.7492 9.81055 11.606 9.5026 11.3481 9.2627C11.0939 9.01921 10.7788 8.89746 10.4028 8.89746C9.89795 8.89746 9.50586 9.08008 9.22656 9.44531C8.95085 9.80697 8.81299 10.3315 8.81299 11.019V11.207C8.81299 11.8766 8.95085 12.3923 9.22656 12.7539C9.50228 13.1156 9.89616 13.2964 10.4082 13.2964ZM15.457 11.3091L14.834 11.959V14H13.8403V5.75H14.834V10.7397L15.3657 10.1006L17.1758 8.18848H18.3843L16.123 10.6162L18.6475 14H17.4819L15.457 11.3091Z" fill="#DCEAFF"/>
</svg>
